<svg width="680" height="680" viewBox="0 0 680 680" role="img" aria-labelledby="title desc" xmlns="http://www.w3.org/2000/svg">
  <title id="title">Authenik8 A8 logo</title>
  <desc id="desc">A geometric Authenik8 mark with interlocked A and 8 forms in a mint green security badge.</desc>
  <defs>
    <radialGradient id="badgeFill" cx="50%" cy="42%" r="64%">
      <stop offset="0" stop-color="#246a43" />
      <stop offset="1" stop-color="#17492f" />
    </radialGradient>
    <filter id="softGlow" x="-18%" y="-18%" width="136%" height="136%">
      <feGaussianBlur stdDeviation="10" result="blur" />
      <feColorMatrix in="blur" type="matrix" values="0 0 0 0 0.49 0 0 0 0 0.91 0 0 0 0 0.67 0 0 0 0.45 0" result="glow" />
      <feMerge>
        <feMergeNode in="glow" />
        <feMergeNode in="SourceGraphic" />
      </feMerge>
    </filter>
  </defs>

  <g opacity="0.34" fill="#7ce8aa">
    <circle cx="100" cy="100" r="3.5" />
    <circle cx="160" cy="100" r="3.5" />
    <circle cx="220" cy="100" r="3.5" />
    <circle cx="460" cy="100" r="3.5" />
    <circle cx="520" cy="100" r="3.5" />
    <circle cx="580" cy="100" r="3.5" />
    <circle cx="100" cy="160" r="3.5" />
    <circle cx="580" cy="160" r="3.5" />
    <circle cx="100" cy="520" r="3.5" />
    <circle cx="580" cy="520" r="3.5" />
    <circle cx="100" cy="580" r="3.5" />
    <circle cx="160" cy="580" r="3.5" />
    <circle cx="220" cy="580" r="3.5" />
    <circle cx="460" cy="580" r="3.5" />
    <circle cx="520" cy="580" r="3.5" />
    <circle cx="580" cy="580" r="3.5" />
  </g>

  <circle cx="340" cy="340" r="280" fill="none" stroke="#7ce8aa" stroke-width="2" stroke-dasharray="8 14" opacity="0.35" />

  <g filter="url(#softGlow)">
    <circle cx="340" cy="340" r="240" fill="url(#badgeFill)" />
    <circle cx="340" cy="340" r="240" fill="none" stroke="#39c978" stroke-width="5" />
    <circle cx="340" cy="340" r="224" fill="none" stroke="#bdf6d4" stroke-width="1.4" opacity="0.28" />

    <polygon points="226 490 262 490 342 260 322 260" fill="#f7fff9" />
    <polygon points="356 260 336 260 418 490 454 490" fill="#f7fff9" />
    <rect x="270" y="388" width="98" height="32" rx="5" fill="#f7fff9" />

    <rect x="360" y="262" width="92" height="96" rx="36" fill="#a7dfbf" />
    <rect x="354" y="362" width="102" height="112" rx="42" fill="#a7dfbf" />
    <rect x="358" y="349" width="94" height="22" rx="5" fill="#a7dfbf" />
  </g>
</svg>
